<mxfile host="app.diagrams.net" modified="2024-04-20T09:43:06.231Z" agent="Mozilla/5.0 (Windows NT 10.0; Win64; x64) AppleWebKit/537.36 (KHTML, like Gecko) Chrome/123.0.0.0 Safari/537.36 OPR/109.0.0.0" etag="4eWiVOTBal8C-m1Fu7FF" version="24.2.7" type="device" pages="2">
  <diagram name="Version 1 (Phillip)" id="L6WJ-n9LaMaSlscLrdJi">
    <mxGraphModel dx="2260" dy="1101" grid="1" gridSize="10" guides="1" tooltips="1" connect="1" arrows="1" fold="1" page="1" pageScale="1" pageWidth="827" pageHeight="1169" math="0" shadow="0">
      <root>
        <mxCell id="0" />
        <mxCell id="1" parent="0" />
        <mxCell id="zjYy3ChJT-0Ri5l5IQOP-11" style="edgeStyle=orthogonalEdgeStyle;rounded=0;orthogonalLoop=1;jettySize=auto;html=1;exitX=0.5;exitY=0;exitDx=0;exitDy=0;entryX=0.5;entryY=0;entryDx=0;entryDy=0;dashed=1;" parent="1" source="dOtZ_pT3GYtevHpGsgd5-3" target="SFs8FsHkWqWxZYswOkaG-24" edge="1">
          <mxGeometry relative="1" as="geometry">
            <Array as="points">
              <mxPoint x="335" y="280" />
            </Array>
          </mxGeometry>
        </mxCell>
        <mxCell id="dOtZ_pT3GYtevHpGsgd5-6" style="edgeStyle=orthogonalEdgeStyle;rounded=0;orthogonalLoop=1;jettySize=auto;html=1;entryX=0.5;entryY=1;entryDx=0;entryDy=0;dashed=1;" parent="1" source="SFs8FsHkWqWxZYswOkaG-7" target="dOtZ_pT3GYtevHpGsgd5-3" edge="1">
          <mxGeometry relative="1" as="geometry" />
        </mxCell>
        <mxCell id="SFs8FsHkWqWxZYswOkaG-7" value="Login / Logout" style="swimlane;fontStyle=0;childLayout=stackLayout;horizontal=1;startSize=26;fillColor=none;horizontalStack=0;resizeParent=1;resizeParentMax=0;resizeLast=0;collapsible=1;marginBottom=0;whiteSpace=wrap;html=1;" parent="1" vertex="1">
          <mxGeometry x="570" y="386" width="140" height="78" as="geometry" />
        </mxCell>
        <mxCell id="SFs8FsHkWqWxZYswOkaG-8" value="username" style="text;strokeColor=none;fillColor=none;align=left;verticalAlign=top;spacingLeft=4;spacingRight=4;overflow=hidden;rotatable=0;points=[[0,0.5],[1,0.5]];portConstraint=eastwest;whiteSpace=wrap;html=1;" parent="SFs8FsHkWqWxZYswOkaG-7" vertex="1">
          <mxGeometry y="26" width="140" height="26" as="geometry" />
        </mxCell>
        <mxCell id="SFs8FsHkWqWxZYswOkaG-9" value="password" style="text;strokeColor=none;fillColor=none;align=left;verticalAlign=top;spacingLeft=4;spacingRight=4;overflow=hidden;rotatable=0;points=[[0,0.5],[1,0.5]];portConstraint=eastwest;whiteSpace=wrap;html=1;" parent="SFs8FsHkWqWxZYswOkaG-7" vertex="1">
          <mxGeometry y="52" width="140" height="26" as="geometry" />
        </mxCell>
        <mxCell id="SFs8FsHkWqWxZYswOkaG-24" value="&lt;p style=&quot;margin:0px;margin-top:4px;text-align:center;&quot;&gt;&lt;i&gt;&amp;lt;&amp;lt;enumeration&amp;gt;&amp;gt;&lt;/i&gt;&lt;br&gt;&lt;b&gt;Service&lt;/b&gt;&lt;/p&gt;&lt;hr size=&quot;1&quot; style=&quot;border-style:solid;&quot;&gt;&lt;p style=&quot;margin:0px;margin-left:4px;&quot;&gt;FLICKENSCHUSTEREI&lt;/p&gt;&lt;p style=&quot;margin:0px;margin-left:4px;&quot;&gt;NÄHSERVICE&lt;/p&gt;&lt;p style=&quot;margin:0px;margin-left:4px;&quot;&gt;SCHERENSCHLEIFEREI&lt;/p&gt;&lt;p style=&quot;margin:0px;margin-left:4px;&quot;&gt;SCHNELLREINIGUNG&lt;/p&gt;&lt;p style=&quot;margin:0px;margin-left:4px;&quot;&gt;SCHLÜSSELDIENST&lt;/p&gt;&lt;p style=&quot;margin:0px;margin-left:4px;&quot;&gt;ELEKTROWERKSTATT&lt;/p&gt;" style="verticalAlign=top;align=left;overflow=fill;html=1;whiteSpace=wrap;" parent="1" vertex="1">
          <mxGeometry x="240" y="355" width="190" height="140" as="geometry" />
        </mxCell>
        <mxCell id="GpAzizF1g1efMJf02qYt-4" style="edgeStyle=orthogonalEdgeStyle;rounded=0;orthogonalLoop=1;jettySize=auto;html=1;entryX=0.5;entryY=1;entryDx=0;entryDy=0;dashed=1;" parent="1" source="SFs8FsHkWqWxZYswOkaG-30" target="GpAzizF1g1efMJf02qYt-3" edge="1">
          <mxGeometry relative="1" as="geometry" />
        </mxCell>
        <mxCell id="SFs8FsHkWqWxZYswOkaG-30" value="&lt;p style=&quot;margin:0px;margin-top:4px;text-align:center;&quot;&gt;&lt;i&gt;&amp;lt;&amp;lt;enumeration&amp;gt;&amp;gt;&lt;/i&gt;&lt;br&gt;&lt;b&gt;Filiale&lt;/b&gt;&lt;/p&gt;&lt;hr size=&quot;1&quot; style=&quot;border-style:solid;&quot;&gt;&lt;p style=&quot;margin:0px;margin-left:4px;&quot;&gt;RESSOURCEN&lt;/p&gt;&lt;p style=&quot;margin:0px;margin-left:4px;&quot;&gt;FINANZ&lt;/p&gt;&lt;p style=&quot;margin:0px;margin-left:4px;&quot;&gt;MITARBEITER&lt;/p&gt;" style="verticalAlign=top;align=left;overflow=fill;html=1;whiteSpace=wrap;" parent="1" vertex="1">
          <mxGeometry x="875" y="215" width="190" height="101" as="geometry" />
        </mxCell>
        <mxCell id="dOtZ_pT3GYtevHpGsgd5-2" style="edgeStyle=orthogonalEdgeStyle;rounded=0;orthogonalLoop=1;jettySize=auto;html=1;entryX=1;entryY=0.5;entryDx=0;entryDy=0;dashed=1;" parent="1" source="SFs8FsHkWqWxZYswOkaG-37" target="dOtZ_pT3GYtevHpGsgd5-1" edge="1">
          <mxGeometry relative="1" as="geometry" />
        </mxCell>
        <mxCell id="SFs8FsHkWqWxZYswOkaG-37" value="&lt;p style=&quot;margin:0px;margin-top:6px;text-align:center;&quot;&gt;&lt;b&gt;Bestellübersicht&lt;/b&gt;&lt;/p&gt;&lt;hr size=&quot;1&quot; style=&quot;border-style:solid;&quot;&gt;&lt;p style=&quot;margin:0px;margin-left:8px;&quot;&gt;add service&lt;/p&gt;&lt;p style=&quot;margin:0px;margin-left:8px;&quot;&gt;view service&lt;/p&gt;&lt;p style=&quot;margin:0px;margin-left:8px;&quot;&gt;checkout&lt;/p&gt;" style="align=left;overflow=fill;html=1;dropTarget=0;whiteSpace=wrap;" parent="1" vertex="1">
          <mxGeometry x="550" y="106" width="180" height="90" as="geometry" />
        </mxCell>
        <mxCell id="SFs8FsHkWqWxZYswOkaG-41" value="&lt;b&gt;&amp;nbsp;package &lt;/b&gt;domain_model [Kleinreparaturen]" style="shape=umlFrame;whiteSpace=wrap;html=1;pointerEvents=0;width=240;height=30;align=left;" parent="1" vertex="1">
          <mxGeometry x="190" y="50" width="920" height="600" as="geometry" />
        </mxCell>
        <mxCell id="zjYy3ChJT-0Ri5l5IQOP-4" value="Managment" style="html=1;whiteSpace=wrap;" parent="1" vertex="1">
          <mxGeometry x="790" y="410" width="80" height="30" as="geometry" />
        </mxCell>
        <mxCell id="zjYy3ChJT-0Ri5l5IQOP-6" style="edgeStyle=orthogonalEdgeStyle;rounded=0;orthogonalLoop=1;jettySize=auto;html=1;entryX=0;entryY=0.5;entryDx=0;entryDy=0;dashed=1;" parent="1" source="SFs8FsHkWqWxZYswOkaG-8" target="zjYy3ChJT-0Ri5l5IQOP-4" edge="1">
          <mxGeometry relative="1" as="geometry" />
        </mxCell>
        <mxCell id="zjYy3ChJT-0Ri5l5IQOP-7" style="edgeStyle=orthogonalEdgeStyle;rounded=0;orthogonalLoop=1;jettySize=auto;html=1;entryX=0.531;entryY=1.004;entryDx=0;entryDy=0;entryPerimeter=0;dashed=1;" parent="1" source="zjYy3ChJT-0Ri5l5IQOP-4" target="SFs8FsHkWqWxZYswOkaG-30" edge="1">
          <mxGeometry relative="1" as="geometry" />
        </mxCell>
        <mxCell id="zjYy3ChJT-0Ri5l5IQOP-8" style="edgeStyle=orthogonalEdgeStyle;rounded=0;orthogonalLoop=1;jettySize=auto;html=1;entryX=0.5;entryY=0;entryDx=0;entryDy=0;dashed=1;" parent="1" source="zjYy3ChJT-0Ri5l5IQOP-4" target="GpAzizF1g1efMJf02qYt-5" edge="1">
          <mxGeometry relative="1" as="geometry">
            <mxPoint x="975.98" y="496.98" as="targetPoint" />
            <Array as="points">
              <mxPoint x="980" y="425" />
            </Array>
          </mxGeometry>
        </mxCell>
        <mxCell id="GpAzizF1g1efMJf02qYt-2" style="edgeStyle=orthogonalEdgeStyle;rounded=0;orthogonalLoop=1;jettySize=auto;html=1;entryX=0.5;entryY=1;entryDx=0;entryDy=0;dashed=1;" parent="1" source="GpAzizF1g1efMJf02qYt-1" target="SFs8FsHkWqWxZYswOkaG-24" edge="1">
          <mxGeometry relative="1" as="geometry" />
        </mxCell>
        <mxCell id="GpAzizF1g1efMJf02qYt-1" value="unauthenticated&lt;div&gt;User&lt;/div&gt;" style="rounded=0;whiteSpace=wrap;html=1;" parent="1" vertex="1">
          <mxGeometry x="482.5" y="545" width="105" height="40" as="geometry" />
        </mxCell>
        <mxCell id="GpAzizF1g1efMJf02qYt-3" value="&lt;p style=&quot;margin:0px;margin-top:4px;text-align:center;&quot;&gt;&lt;i&gt;&amp;lt;&amp;lt;enumeration&amp;gt;&amp;gt;&lt;/i&gt;&lt;br&gt;&lt;b&gt;Ressourcen&lt;/b&gt;&lt;/p&gt;&lt;hr size=&quot;1&quot; style=&quot;border-style:solid;&quot;&gt;&lt;p style=&quot;margin:0px;margin-left:4px;&quot;&gt;ARBEITSGERÄTE&lt;/p&gt;&lt;p style=&quot;margin:0px;margin-left:4px;&quot;&gt;MATERIAL&lt;/p&gt;&lt;p style=&quot;margin:0px;margin-left:4px;&quot;&gt;RÄUME&lt;/p&gt;" style="verticalAlign=top;align=left;overflow=fill;html=1;whiteSpace=wrap;" parent="1" vertex="1">
          <mxGeometry x="875" y="70" width="190" height="101" as="geometry" />
        </mxCell>
        <mxCell id="GpAzizF1g1efMJf02qYt-5" value="Register a new worker" style="html=1;whiteSpace=wrap;" parent="1" vertex="1">
          <mxGeometry x="930" y="515" width="100" height="45" as="geometry" />
        </mxCell>
        <mxCell id="dOtZ_pT3GYtevHpGsgd5-1" value="&lt;p style=&quot;margin:0px;margin-top:6px;text-align:center;&quot;&gt;&lt;b&gt;Lager&lt;/b&gt;&lt;/p&gt;&lt;hr size=&quot;1&quot; style=&quot;border-style:solid;&quot;&gt;&lt;p style=&quot;margin:0px;margin-left:8px;&quot;&gt;neue artikel&lt;/p&gt;&lt;p style=&quot;margin:0px;margin-left:8px;&quot;&gt;spende&lt;/p&gt;" style="align=left;overflow=fill;html=1;dropTarget=0;whiteSpace=wrap;" parent="1" vertex="1">
          <mxGeometry x="282.5" y="106" width="180" height="90" as="geometry" />
        </mxCell>
        <mxCell id="dOtZ_pT3GYtevHpGsgd5-5" style="edgeStyle=orthogonalEdgeStyle;rounded=0;orthogonalLoop=1;jettySize=auto;html=1;entryX=0.5;entryY=1;entryDx=0;entryDy=0;dashed=1;" parent="1" source="dOtZ_pT3GYtevHpGsgd5-3" target="SFs8FsHkWqWxZYswOkaG-37" edge="1">
          <mxGeometry relative="1" as="geometry" />
        </mxCell>
        <mxCell id="dOtZ_pT3GYtevHpGsgd5-3" value="Mitarbeiter" style="rounded=0;whiteSpace=wrap;html=1;" parent="1" vertex="1">
          <mxGeometry x="587.5" y="260" width="105" height="40" as="geometry" />
        </mxCell>
        <mxCell id="dOtZ_pT3GYtevHpGsgd5-8" style="edgeStyle=orthogonalEdgeStyle;rounded=0;orthogonalLoop=1;jettySize=auto;html=1;entryX=0.5;entryY=1.019;entryDx=0;entryDy=0;entryPerimeter=0;dashed=1;" parent="1" source="GpAzizF1g1efMJf02qYt-1" target="SFs8FsHkWqWxZYswOkaG-9" edge="1">
          <mxGeometry relative="1" as="geometry">
            <Array as="points">
              <mxPoint x="640" y="565" />
            </Array>
          </mxGeometry>
        </mxCell>
        <mxCell id="Pc5kriZWbZrNt8ppmHWM-1" value="Text" style="text;html=1;align=center;verticalAlign=middle;whiteSpace=wrap;rounded=0;" vertex="1" parent="1">
          <mxGeometry x="530" y="76" width="60" height="30" as="geometry" />
        </mxCell>
      </root>
    </mxGraphModel>
  </diagram>
  <diagram id="Yn2aoOHRh6MFNlnkPbl-" name="Version 2 (Jannes)">
    <mxGraphModel dx="3087" dy="2270" grid="1" gridSize="10" guides="1" tooltips="1" connect="1" arrows="1" fold="1" page="1" pageScale="1" pageWidth="827" pageHeight="1169" math="0" shadow="0">
      <root>
        <mxCell id="0" />
        <mxCell id="1" parent="0" />
        <mxCell id="8MOcwneKtv6zkITeavdK-9" style="edgeStyle=orthogonalEdgeStyle;rounded=0;orthogonalLoop=1;jettySize=auto;html=1;entryX=0.5;entryY=1;entryDx=0;entryDy=0;" edge="1" parent="1" source="yJ_Jj67r5UvaJyy1enGA-1" target="8MOcwneKtv6zkITeavdK-4">
          <mxGeometry relative="1" as="geometry" />
        </mxCell>
        <mxCell id="8MOcwneKtv6zkITeavdK-13" style="edgeStyle=orthogonalEdgeStyle;rounded=0;orthogonalLoop=1;jettySize=auto;html=1;entryX=1;entryY=0.5;entryDx=0;entryDy=0;exitX=1;exitY=0.5;exitDx=0;exitDy=0;" edge="1" parent="1" source="yJ_Jj67r5UvaJyy1enGA-1" target="8MOcwneKtv6zkITeavdK-5">
          <mxGeometry relative="1" as="geometry" />
        </mxCell>
        <mxCell id="zqzKAoWXqfA8L6BJdc7o-20" value="&lt;font style=&quot;font-size: 14px;&quot;&gt;1&lt;/font&gt;" style="edgeLabel;html=1;align=center;verticalAlign=middle;resizable=0;points=[];" vertex="1" connectable="0" parent="8MOcwneKtv6zkITeavdK-13">
          <mxGeometry x="0.9026" y="1" relative="1" as="geometry">
            <mxPoint as="offset" />
          </mxGeometry>
        </mxCell>
        <mxCell id="33N8ULpZx4EMxlpKR_Wp-2" value="&lt;font style=&quot;font-size: 14px;&quot;&gt;&lt;br&gt;&lt;span style=&quot;color: rgb(0, 0, 0); font-family: Helvetica; font-style: normal; font-variant-ligatures: normal; font-variant-caps: normal; font-weight: 400; letter-spacing: normal; orphans: 2; text-align: center; text-indent: 0px; text-transform: none; widows: 2; word-spacing: 0px; -webkit-text-stroke-width: 0px; white-space: normal; background-color: rgb(251, 251, 251); text-decoration-thickness: initial; text-decoration-style: initial; text-decoration-color: initial; float: none; display: inline !important;&quot;&gt;1 ... *&lt;/span&gt;&lt;br&gt;&lt;/font&gt;" style="edgeLabel;html=1;align=center;verticalAlign=middle;resizable=0;points=[];" vertex="1" connectable="0" parent="8MOcwneKtv6zkITeavdK-13">
          <mxGeometry x="-0.7642" y="-1" relative="1" as="geometry">
            <mxPoint as="offset" />
          </mxGeometry>
        </mxCell>
        <mxCell id="yJ_Jj67r5UvaJyy1enGA-1" value="Registered User" style="swimlane;whiteSpace=wrap;html=1;" vertex="1" parent="1">
          <mxGeometry x="450" y="240" width="160" height="160" as="geometry" />
        </mxCell>
        <mxCell id="33N8ULpZx4EMxlpKR_Wp-28" value="USERNAME&lt;div&gt;PASSWORD&lt;/div&gt;&lt;div&gt;ADRESS&lt;/div&gt;" style="text;html=1;align=left;verticalAlign=middle;resizable=0;points=[];autosize=1;strokeColor=none;fillColor=none;" vertex="1" parent="yJ_Jj67r5UvaJyy1enGA-1">
          <mxGeometry x="10" y="30" width="90" height="60" as="geometry" />
        </mxCell>
        <mxCell id="8MOcwneKtv6zkITeavdK-1" value="Kunden" style="swimlane;whiteSpace=wrap;html=1;" vertex="1" parent="1">
          <mxGeometry x="20" y="235" width="120" height="50" as="geometry" />
        </mxCell>
        <mxCell id="33N8ULpZx4EMxlpKR_Wp-29" style="edgeStyle=orthogonalEdgeStyle;rounded=0;orthogonalLoop=1;jettySize=auto;html=1;" edge="1" parent="8MOcwneKtv6zkITeavdK-1" source="nlekxh2a4RUyMmhlE-8h-7">
          <mxGeometry relative="1" as="geometry">
            <mxPoint x="-20" y="405" as="targetPoint" />
            <Array as="points">
              <mxPoint x="20" y="405" />
            </Array>
          </mxGeometry>
        </mxCell>
        <mxCell id="33N8ULpZx4EMxlpKR_Wp-30" value="&lt;font style=&quot;font-size: 14px;&quot;&gt;1&lt;/font&gt;" style="edgeLabel;html=1;align=center;verticalAlign=middle;resizable=0;points=[];" vertex="1" connectable="0" parent="33N8ULpZx4EMxlpKR_Wp-29">
          <mxGeometry x="-0.8863" y="1" relative="1" as="geometry">
            <mxPoint as="offset" />
          </mxGeometry>
        </mxCell>
        <mxCell id="nlekxh2a4RUyMmhlE-8h-7" value="KundenID" style="text;html=1;align=center;verticalAlign=middle;resizable=0;points=[];autosize=1;strokeColor=none;fillColor=none;" vertex="1" parent="8MOcwneKtv6zkITeavdK-1">
          <mxGeometry y="22" width="80" height="30" as="geometry" />
        </mxCell>
        <mxCell id="8MOcwneKtv6zkITeavdK-8" style="edgeStyle=orthogonalEdgeStyle;rounded=0;orthogonalLoop=1;jettySize=auto;html=1;exitX=0.5;exitY=0;exitDx=0;exitDy=0;entryX=0.5;entryY=1;entryDx=0;entryDy=0;" edge="1" parent="1" source="8MOcwneKtv6zkITeavdK-2" target="yJ_Jj67r5UvaJyy1enGA-1">
          <mxGeometry relative="1" as="geometry" />
        </mxCell>
        <mxCell id="8MOcwneKtv6zkITeavdK-2" value="Fillialm&lt;span style=&quot;background-color: initial;&quot;&gt;anagement&lt;/span&gt;" style="swimlane;whiteSpace=wrap;html=1;" vertex="1" parent="1">
          <mxGeometry x="520" y="440" width="120" height="52" as="geometry" />
        </mxCell>
        <mxCell id="zqzKAoWXqfA8L6BJdc7o-35" value="ID" style="text;html=1;align=center;verticalAlign=middle;resizable=0;points=[];autosize=1;strokeColor=none;fillColor=none;" vertex="1" parent="8MOcwneKtv6zkITeavdK-2">
          <mxGeometry x="5" y="22" width="40" height="30" as="geometry" />
        </mxCell>
        <mxCell id="8MOcwneKtv6zkITeavdK-10" style="edgeStyle=orthogonalEdgeStyle;rounded=0;orthogonalLoop=1;jettySize=auto;html=1;entryX=1;entryY=0.75;entryDx=0;entryDy=0;exitX=0.5;exitY=0;exitDx=0;exitDy=0;" edge="1" parent="1" source="8MOcwneKtv6zkITeavdK-4" target="8MOcwneKtv6zkITeavdK-5">
          <mxGeometry relative="1" as="geometry" />
        </mxCell>
        <mxCell id="zqzKAoWXqfA8L6BJdc7o-19" value="&lt;font style=&quot;font-size: 14px;&quot;&gt;1&lt;/font&gt;" style="edgeLabel;html=1;align=center;verticalAlign=middle;resizable=0;points=[];" vertex="1" connectable="0" parent="8MOcwneKtv6zkITeavdK-10">
          <mxGeometry x="0.8382" y="2" relative="1" as="geometry">
            <mxPoint as="offset" />
          </mxGeometry>
        </mxCell>
        <mxCell id="8MOcwneKtv6zkITeavdK-4" value="User" style="swimlane;whiteSpace=wrap;html=1;" vertex="1" parent="1">
          <mxGeometry x="450" y="110" width="160" height="90" as="geometry" />
        </mxCell>
        <mxCell id="8MOcwneKtv6zkITeavdK-5" value="Fillialmanagementsystem" style="swimlane;whiteSpace=wrap;html=1;" vertex="1" parent="1">
          <mxGeometry x="-90" y="-100" width="180" height="100" as="geometry" />
        </mxCell>
        <mxCell id="8MOcwneKtv6zkITeavdK-11" value="&lt;font style=&quot;font-size: 14px;&quot;&gt;0 ...*&lt;/font&gt;" style="text;html=1;align=center;verticalAlign=middle;whiteSpace=wrap;rounded=0;" vertex="1" parent="1">
          <mxGeometry x="537" y="81" width="60" height="30" as="geometry" />
        </mxCell>
        <mxCell id="ufMA5EX9a9atEQRI4HPc-6" style="edgeStyle=orthogonalEdgeStyle;rounded=0;orthogonalLoop=1;jettySize=auto;html=1;exitX=0.5;exitY=1;exitDx=0;exitDy=0;" edge="1" parent="1" source="8MOcwneKtv6zkITeavdK-15" target="ufMA5EX9a9atEQRI4HPc-5">
          <mxGeometry relative="1" as="geometry" />
        </mxCell>
        <mxCell id="zqzKAoWXqfA8L6BJdc7o-25" value="&lt;font style=&quot;font-size: 14px;&quot;&gt;1&lt;/font&gt;" style="edgeLabel;html=1;align=center;verticalAlign=middle;resizable=0;points=[];" vertex="1" connectable="0" parent="ufMA5EX9a9atEQRI4HPc-6">
          <mxGeometry x="-0.6713" relative="1" as="geometry">
            <mxPoint as="offset" />
          </mxGeometry>
        </mxCell>
        <mxCell id="zqzKAoWXqfA8L6BJdc7o-26" value="&lt;font style=&quot;font-size: 14px;&quot;&gt;1...*&lt;/font&gt;" style="edgeLabel;html=1;align=center;verticalAlign=middle;resizable=0;points=[];" vertex="1" connectable="0" parent="ufMA5EX9a9atEQRI4HPc-6">
          <mxGeometry x="0.208" y="1" relative="1" as="geometry">
            <mxPoint as="offset" />
          </mxGeometry>
        </mxCell>
        <mxCell id="nlekxh2a4RUyMmhlE-8h-5" style="edgeStyle=orthogonalEdgeStyle;rounded=0;orthogonalLoop=1;jettySize=auto;html=1;entryX=0;entryY=0.25;entryDx=0;entryDy=0;" edge="1" parent="1" source="8MOcwneKtv6zkITeavdK-15" target="8MOcwneKtv6zkITeavdK-5">
          <mxGeometry relative="1" as="geometry" />
        </mxCell>
        <mxCell id="zqzKAoWXqfA8L6BJdc7o-27" value="&lt;font style=&quot;font-size: 14px;&quot;&gt;1...*&lt;/font&gt;" style="edgeLabel;html=1;align=center;verticalAlign=middle;resizable=0;points=[];" vertex="1" connectable="0" parent="nlekxh2a4RUyMmhlE-8h-5">
          <mxGeometry x="-0.8509" y="1" relative="1" as="geometry">
            <mxPoint as="offset" />
          </mxGeometry>
        </mxCell>
        <mxCell id="8MOcwneKtv6zkITeavdK-15" value="ServiceCatalog" style="swimlane;whiteSpace=wrap;html=1;" vertex="1" parent="1">
          <mxGeometry x="-400" y="40" width="160" height="80" as="geometry">
            <mxRectangle x="-120" width="120" height="30" as="alternateBounds" />
          </mxGeometry>
        </mxCell>
        <mxCell id="ufMA5EX9a9atEQRI4HPc-1" value="Bestellübersicht" style="swimlane;whiteSpace=wrap;html=1;" vertex="1" parent="1">
          <mxGeometry x="-200" y="280" width="160" height="80" as="geometry">
            <mxRectangle x="-120" width="120" height="30" as="alternateBounds" />
          </mxGeometry>
        </mxCell>
        <mxCell id="ufMA5EX9a9atEQRI4HPc-2" style="edgeStyle=orthogonalEdgeStyle;rounded=0;orthogonalLoop=1;jettySize=auto;html=1;exitX=0.5;exitY=0;exitDx=0;exitDy=0;entryX=0;entryY=0.75;entryDx=0;entryDy=0;" edge="1" parent="1" source="ufMA5EX9a9atEQRI4HPc-1" target="8MOcwneKtv6zkITeavdK-5">
          <mxGeometry relative="1" as="geometry">
            <mxPoint x="-120" y="10" as="targetPoint" />
          </mxGeometry>
        </mxCell>
        <mxCell id="zqzKAoWXqfA8L6BJdc7o-18" value="&lt;font style=&quot;font-size: 14px;&quot;&gt;1&lt;/font&gt;" style="edgeLabel;html=1;align=center;verticalAlign=middle;resizable=0;points=[];" vertex="1" connectable="0" parent="ufMA5EX9a9atEQRI4HPc-2">
          <mxGeometry x="0.8743" y="-1" relative="1" as="geometry">
            <mxPoint as="offset" />
          </mxGeometry>
        </mxCell>
        <mxCell id="zqzKAoWXqfA8L6BJdc7o-24" value="&lt;font style=&quot;font-size: 14px;&quot;&gt;0...*&lt;/font&gt;" style="edgeLabel;html=1;align=center;verticalAlign=middle;resizable=0;points=[];" vertex="1" connectable="0" parent="ufMA5EX9a9atEQRI4HPc-2">
          <mxGeometry x="-0.8809" y="2" relative="1" as="geometry">
            <mxPoint as="offset" />
          </mxGeometry>
        </mxCell>
        <mxCell id="ufMA5EX9a9atEQRI4HPc-5" value="Services" style="swimlane;whiteSpace=wrap;html=1;" vertex="1" parent="1">
          <mxGeometry x="-400" y="200" width="160" height="120" as="geometry">
            <mxRectangle x="-120" width="120" height="30" as="alternateBounds" />
          </mxGeometry>
        </mxCell>
        <mxCell id="ufMA5EX9a9atEQRI4HPc-8" value="&lt;p style=&quot;text-wrap: wrap; margin: 0px 0px 0px 4px;&quot;&gt;&lt;br&gt;&lt;/p&gt;" style="text;html=1;align=left;verticalAlign=middle;resizable=0;points=[];autosize=1;strokeColor=none;fillColor=none;" vertex="1" parent="ufMA5EX9a9atEQRI4HPc-5">
          <mxGeometry x="65" y="58" width="30" height="30" as="geometry" />
        </mxCell>
        <mxCell id="nlekxh2a4RUyMmhlE-8h-3" value="&lt;span style=&quot;font-size: 14px;&quot;&gt;NAME&lt;br&gt;PREIS&lt;br&gt;&lt;/span&gt;&lt;div&gt;&lt;span style=&quot;font-size: 14px;&quot;&gt;...&lt;/span&gt;&lt;/div&gt;" style="text;html=1;align=center;verticalAlign=middle;resizable=0;points=[];autosize=1;strokeColor=none;fillColor=none;" vertex="1" parent="ufMA5EX9a9atEQRI4HPc-5">
          <mxGeometry y="23" width="70" height="60" as="geometry" />
        </mxCell>
        <mxCell id="nlekxh2a4RUyMmhlE-8h-9" style="edgeStyle=orthogonalEdgeStyle;rounded=0;orthogonalLoop=1;jettySize=auto;html=1;entryX=0.5;entryY=1;entryDx=0;entryDy=0;" edge="1" parent="1" source="nlekxh2a4RUyMmhlE-8h-6" target="yJ_Jj67r5UvaJyy1enGA-1">
          <mxGeometry relative="1" as="geometry" />
        </mxCell>
        <mxCell id="zqzKAoWXqfA8L6BJdc7o-7" style="edgeStyle=orthogonalEdgeStyle;rounded=0;orthogonalLoop=1;jettySize=auto;html=1;exitX=0;exitY=0.5;exitDx=0;exitDy=0;entryX=0.5;entryY=1;entryDx=0;entryDy=0;" edge="1" parent="1" source="nlekxh2a4RUyMmhlE-8h-6" target="nlekxh2a4RUyMmhlE-8h-17">
          <mxGeometry relative="1" as="geometry">
            <mxPoint x="320" y="220" as="targetPoint" />
          </mxGeometry>
        </mxCell>
        <mxCell id="zqzKAoWXqfA8L6BJdc7o-9" value="&lt;font style=&quot;font-size: 14px;&quot;&gt;0...*&lt;/font&gt;" style="edgeLabel;html=1;align=center;verticalAlign=middle;resizable=0;points=[];" vertex="1" connectable="0" parent="zqzKAoWXqfA8L6BJdc7o-7">
          <mxGeometry x="-0.8096" y="2" relative="1" as="geometry">
            <mxPoint as="offset" />
          </mxGeometry>
        </mxCell>
        <mxCell id="nlekxh2a4RUyMmhlE-8h-6" value="Mitarbeiter" style="swimlane;whiteSpace=wrap;html=1;" vertex="1" parent="1">
          <mxGeometry x="390" y="440" width="120" height="52" as="geometry" />
        </mxCell>
        <mxCell id="zqzKAoWXqfA8L6BJdc7o-34" value="ID" style="text;html=1;align=center;verticalAlign=middle;resizable=0;points=[];autosize=1;strokeColor=none;fillColor=none;" vertex="1" parent="nlekxh2a4RUyMmhlE-8h-6">
          <mxGeometry x="5" y="22" width="40" height="30" as="geometry" />
        </mxCell>
        <mxCell id="zqzKAoWXqfA8L6BJdc7o-29" style="edgeStyle=orthogonalEdgeStyle;rounded=0;orthogonalLoop=1;jettySize=auto;html=1;exitX=0.5;exitY=0;exitDx=0;exitDy=0;entryX=0.5;entryY=1;entryDx=0;entryDy=0;" edge="1" parent="1" source="nlekxh2a4RUyMmhlE-8h-10" target="nlekxh2a4RUyMmhlE-8h-22">
          <mxGeometry relative="1" as="geometry" />
        </mxCell>
        <mxCell id="zqzKAoWXqfA8L6BJdc7o-30" value="&lt;font style=&quot;font-size: 14px;&quot;&gt;1...*&lt;/font&gt;" style="edgeLabel;html=1;align=center;verticalAlign=middle;resizable=0;points=[];" vertex="1" connectable="0" parent="zqzKAoWXqfA8L6BJdc7o-29">
          <mxGeometry x="-0.8005" relative="1" as="geometry">
            <mxPoint x="15" as="offset" />
          </mxGeometry>
        </mxCell>
        <mxCell id="zqzKAoWXqfA8L6BJdc7o-31" value="&lt;font style=&quot;font-size: 14px;&quot;&gt;0...1&lt;/font&gt;" style="edgeLabel;html=1;align=center;verticalAlign=middle;resizable=0;points=[];" vertex="1" connectable="0" parent="zqzKAoWXqfA8L6BJdc7o-29">
          <mxGeometry x="0.718" y="1" relative="1" as="geometry">
            <mxPoint y="3" as="offset" />
          </mxGeometry>
        </mxCell>
        <mxCell id="zqzKAoWXqfA8L6BJdc7o-32" style="edgeStyle=orthogonalEdgeStyle;rounded=0;orthogonalLoop=1;jettySize=auto;html=1;entryX=0.5;entryY=1;entryDx=0;entryDy=0;" edge="1" parent="1" source="nlekxh2a4RUyMmhlE-8h-10" target="nlekxh2a4RUyMmhlE-8h-23">
          <mxGeometry relative="1" as="geometry" />
        </mxCell>
        <mxCell id="zqzKAoWXqfA8L6BJdc7o-33" value="&lt;font style=&quot;font-size: 14px;&quot;&gt;0...1&lt;/font&gt;" style="edgeLabel;html=1;align=center;verticalAlign=middle;resizable=0;points=[];" vertex="1" connectable="0" parent="zqzKAoWXqfA8L6BJdc7o-32">
          <mxGeometry x="0.7075" y="2" relative="1" as="geometry">
            <mxPoint as="offset" />
          </mxGeometry>
        </mxCell>
        <mxCell id="nlekxh2a4RUyMmhlE-8h-10" value="Item" style="swimlane;whiteSpace=wrap;html=1;" vertex="1" parent="1">
          <mxGeometry x="-230" y="582.62" width="230" height="90" as="geometry">
            <mxRectangle x="-120" width="120" height="30" as="alternateBounds" />
          </mxGeometry>
        </mxCell>
        <mxCell id="nlekxh2a4RUyMmhlE-8h-24" value="&lt;div&gt;ITEMID&lt;br&gt;KATEGORIE&lt;br&gt;ZUSTAND&lt;/div&gt;&lt;div&gt;BILD&lt;br&gt;&lt;/div&gt;" style="text;html=1;align=left;verticalAlign=middle;resizable=0;points=[];autosize=1;strokeColor=none;fillColor=none;" vertex="1" parent="nlekxh2a4RUyMmhlE-8h-10">
          <mxGeometry y="20" width="90" height="70" as="geometry" />
        </mxCell>
        <mxCell id="nlekxh2a4RUyMmhlE-8h-37" style="edgeStyle=orthogonalEdgeStyle;rounded=0;orthogonalLoop=1;jettySize=auto;html=1;exitX=1;exitY=0.5;exitDx=0;exitDy=0;entryX=0;entryY=0.25;entryDx=0;entryDy=0;" edge="1" parent="1" source="nlekxh2a4RUyMmhlE-8h-11" target="8MOcwneKtv6zkITeavdK-5">
          <mxGeometry relative="1" as="geometry">
            <Array as="points">
              <mxPoint x="-430" y="40" />
              <mxPoint x="-430" y="-75" />
            </Array>
          </mxGeometry>
        </mxCell>
        <mxCell id="zqzKAoWXqfA8L6BJdc7o-15" value="&lt;font style=&quot;font-size: 14px;&quot;&gt;1...*&lt;/font&gt;" style="edgeLabel;html=1;align=center;verticalAlign=middle;resizable=0;points=[];" vertex="1" connectable="0" parent="nlekxh2a4RUyMmhlE-8h-37">
          <mxGeometry x="-0.9127" y="-3" relative="1" as="geometry">
            <mxPoint y="-3" as="offset" />
          </mxGeometry>
        </mxCell>
        <mxCell id="nlekxh2a4RUyMmhlE-8h-11" value="Lager" style="swimlane;whiteSpace=wrap;html=1;" vertex="1" parent="1">
          <mxGeometry x="-620" width="140" height="80" as="geometry">
            <mxRectangle x="-120" width="120" height="30" as="alternateBounds" />
          </mxGeometry>
        </mxCell>
        <mxCell id="nlekxh2a4RUyMmhlE-8h-35" style="edgeStyle=orthogonalEdgeStyle;rounded=0;orthogonalLoop=1;jettySize=auto;html=1;entryX=0;entryY=0.25;entryDx=0;entryDy=0;" edge="1" parent="1" source="nlekxh2a4RUyMmhlE-8h-14" target="8MOcwneKtv6zkITeavdK-5">
          <mxGeometry relative="1" as="geometry" />
        </mxCell>
        <mxCell id="zqzKAoWXqfA8L6BJdc7o-14" value="&lt;font style=&quot;font-size: 14px;&quot;&gt;1&lt;/font&gt;" style="edgeLabel;html=1;align=center;verticalAlign=middle;resizable=0;points=[];" vertex="1" connectable="0" parent="nlekxh2a4RUyMmhlE-8h-35">
          <mxGeometry x="0.8107" y="1" relative="1" as="geometry">
            <mxPoint as="offset" />
          </mxGeometry>
        </mxCell>
        <mxCell id="zqzKAoWXqfA8L6BJdc7o-17" value="&lt;font style=&quot;font-size: 14px;&quot;&gt;1&lt;/font&gt;" style="edgeLabel;html=1;align=center;verticalAlign=middle;resizable=0;points=[];" vertex="1" connectable="0" parent="nlekxh2a4RUyMmhlE-8h-35">
          <mxGeometry x="-0.8869" y="-1" relative="1" as="geometry">
            <mxPoint as="offset" />
          </mxGeometry>
        </mxCell>
        <mxCell id="nlekxh2a4RUyMmhlE-8h-14" value="Finanzbuchhaltung" style="swimlane;whiteSpace=wrap;html=1;startSize=23;" vertex="1" parent="1">
          <mxGeometry x="-640" y="-100" width="160" height="50" as="geometry" />
        </mxCell>
        <mxCell id="33N8ULpZx4EMxlpKR_Wp-26" value="" style="endArrow=none;html=1;rounded=0;exitX=1.02;exitY=0.209;exitDx=0;exitDy=0;exitPerimeter=0;entryX=0.004;entryY=0.102;entryDx=0;entryDy=0;entryPerimeter=0;" edge="1" parent="nlekxh2a4RUyMmhlE-8h-14" target="8MOcwneKtv6zkITeavdK-5">
          <mxGeometry width="50" height="50" relative="1" as="geometry">
            <mxPoint x="160.20000000000005" y="10.450000000000045" as="sourcePoint" />
            <mxPoint x="547" y="10" as="targetPoint" />
          </mxGeometry>
        </mxCell>
        <mxCell id="zqzKAoWXqfA8L6BJdc7o-1" style="edgeStyle=orthogonalEdgeStyle;rounded=0;orthogonalLoop=1;jettySize=auto;html=1;entryX=0.75;entryY=1;entryDx=0;entryDy=0;" edge="1" parent="1" source="nlekxh2a4RUyMmhlE-8h-17" target="8MOcwneKtv6zkITeavdK-5">
          <mxGeometry relative="1" as="geometry" />
        </mxCell>
        <mxCell id="zqzKAoWXqfA8L6BJdc7o-21" value="&lt;font style=&quot;font-size: 14px;&quot;&gt;1&lt;/font&gt;" style="edgeLabel;html=1;align=center;verticalAlign=middle;resizable=0;points=[];" vertex="1" connectable="0" parent="zqzKAoWXqfA8L6BJdc7o-1">
          <mxGeometry x="0.8546" y="-1" relative="1" as="geometry">
            <mxPoint as="offset" />
          </mxGeometry>
        </mxCell>
        <mxCell id="zqzKAoWXqfA8L6BJdc7o-23" value="&lt;font style=&quot;font-size: 14px;&quot;&gt;0...*&lt;/font&gt;" style="edgeLabel;html=1;align=center;verticalAlign=middle;resizable=0;points=[];" vertex="1" connectable="0" parent="zqzKAoWXqfA8L6BJdc7o-1">
          <mxGeometry x="-0.8801" y="1" relative="1" as="geometry">
            <mxPoint as="offset" />
          </mxGeometry>
        </mxCell>
        <mxCell id="nlekxh2a4RUyMmhlE-8h-17" value="Ressourcen" style="swimlane;whiteSpace=wrap;html=1;" vertex="1" parent="1">
          <mxGeometry x="240" y="160" width="160" height="50" as="geometry" />
        </mxCell>
        <mxCell id="zqzKAoWXqfA8L6BJdc7o-4" style="edgeStyle=orthogonalEdgeStyle;rounded=0;orthogonalLoop=1;jettySize=auto;html=1;exitX=1;exitY=0.5;exitDx=0;exitDy=0;entryX=0.5;entryY=1;entryDx=0;entryDy=0;" edge="1" parent="1" source="nlekxh2a4RUyMmhlE-8h-18" target="nlekxh2a4RUyMmhlE-8h-17">
          <mxGeometry relative="1" as="geometry">
            <mxPoint x="320" y="220" as="targetPoint" />
            <Array as="points">
              <mxPoint x="320" y="343" />
            </Array>
          </mxGeometry>
        </mxCell>
        <mxCell id="zqzKAoWXqfA8L6BJdc7o-13" value="&lt;font style=&quot;font-size: 14px;&quot;&gt;0...*&lt;/font&gt;" style="edgeLabel;html=1;align=center;verticalAlign=middle;resizable=0;points=[];" vertex="1" connectable="0" parent="zqzKAoWXqfA8L6BJdc7o-4">
          <mxGeometry x="-0.8347" relative="1" as="geometry">
            <mxPoint x="3" as="offset" />
          </mxGeometry>
        </mxCell>
        <mxCell id="nlekxh2a4RUyMmhlE-8h-18" value="Arbeitsgerät" style="swimlane;whiteSpace=wrap;html=1;" vertex="1" parent="1">
          <mxGeometry x="160" y="318" width="120" height="50" as="geometry" />
        </mxCell>
        <mxCell id="zqzKAoWXqfA8L6BJdc7o-5" style="edgeStyle=orthogonalEdgeStyle;rounded=0;orthogonalLoop=1;jettySize=auto;html=1;exitX=1;exitY=0.5;exitDx=0;exitDy=0;entryX=0.5;entryY=1;entryDx=0;entryDy=0;" edge="1" parent="1" source="nlekxh2a4RUyMmhlE-8h-19" target="nlekxh2a4RUyMmhlE-8h-17">
          <mxGeometry relative="1" as="geometry">
            <mxPoint x="320" y="220" as="targetPoint" />
            <Array as="points">
              <mxPoint x="320" y="405" />
            </Array>
          </mxGeometry>
        </mxCell>
        <mxCell id="zqzKAoWXqfA8L6BJdc7o-12" value="&lt;font style=&quot;font-size: 14px;&quot;&gt;0...*&lt;/font&gt;" style="edgeLabel;html=1;align=center;verticalAlign=middle;resizable=0;points=[];" vertex="1" connectable="0" parent="zqzKAoWXqfA8L6BJdc7o-5">
          <mxGeometry x="-0.8378" relative="1" as="geometry">
            <mxPoint as="offset" />
          </mxGeometry>
        </mxCell>
        <mxCell id="nlekxh2a4RUyMmhlE-8h-19" value="Material" style="swimlane;whiteSpace=wrap;html=1;startSize=23;" vertex="1" parent="1">
          <mxGeometry x="160" y="380" width="120" height="50" as="geometry" />
        </mxCell>
        <mxCell id="zqzKAoWXqfA8L6BJdc7o-37" style="edgeStyle=orthogonalEdgeStyle;rounded=0;orthogonalLoop=1;jettySize=auto;html=1;entryX=0.5;entryY=1;entryDx=0;entryDy=0;exitX=1;exitY=0.5;exitDx=0;exitDy=0;" edge="1" parent="1" source="nlekxh2a4RUyMmhlE-8h-20" target="nlekxh2a4RUyMmhlE-8h-17">
          <mxGeometry relative="1" as="geometry" />
        </mxCell>
        <mxCell id="zqzKAoWXqfA8L6BJdc7o-39" value="&lt;font style=&quot;font-size: 14px;&quot;&gt;0...*&lt;/font&gt;" style="edgeLabel;html=1;align=center;verticalAlign=middle;resizable=0;points=[];" vertex="1" connectable="0" parent="zqzKAoWXqfA8L6BJdc7o-37">
          <mxGeometry x="-0.859" y="-1" relative="1" as="geometry">
            <mxPoint as="offset" />
          </mxGeometry>
        </mxCell>
        <mxCell id="nlekxh2a4RUyMmhlE-8h-20" value="Räume" style="swimlane;whiteSpace=wrap;html=1;" vertex="1" parent="1">
          <mxGeometry x="160" y="440" width="120" height="51" as="geometry" />
        </mxCell>
        <mxCell id="nlekxh2a4RUyMmhlE-8h-30" style="edgeStyle=orthogonalEdgeStyle;rounded=0;orthogonalLoop=1;jettySize=auto;html=1;exitX=0.5;exitY=0;exitDx=0;exitDy=0;" edge="1" parent="1" source="nlekxh2a4RUyMmhlE-8h-22">
          <mxGeometry relative="1" as="geometry">
            <mxPoint x="-120" y="360" as="targetPoint" />
          </mxGeometry>
        </mxCell>
        <mxCell id="nlekxh2a4RUyMmhlE-8h-22" value="Order" style="swimlane;whiteSpace=wrap;html=1;" vertex="1" parent="1">
          <mxGeometry x="-110" y="400" width="110" height="120" as="geometry" />
        </mxCell>
        <mxCell id="nlekxh2a4RUyMmhlE-8h-28" value="ORDERID&lt;br&gt;ZEITSTEMPEL&lt;div&gt;STATUS&lt;/div&gt;" style="text;html=1;align=left;verticalAlign=middle;resizable=0;points=[];autosize=1;strokeColor=none;fillColor=none;" vertex="1" parent="nlekxh2a4RUyMmhlE-8h-22">
          <mxGeometry y="22" width="110" height="60" as="geometry" />
        </mxCell>
        <mxCell id="nlekxh2a4RUyMmhlE-8h-29" style="edgeStyle=orthogonalEdgeStyle;rounded=0;orthogonalLoop=1;jettySize=auto;html=1;entryX=0.5;entryY=1;entryDx=0;entryDy=0;" edge="1" parent="1" source="nlekxh2a4RUyMmhlE-8h-23" target="ufMA5EX9a9atEQRI4HPc-1">
          <mxGeometry relative="1" as="geometry" />
        </mxCell>
        <mxCell id="nlekxh2a4RUyMmhlE-8h-23" value="Offer" style="swimlane;whiteSpace=wrap;html=1;" vertex="1" parent="1">
          <mxGeometry x="-230" y="400" width="100" height="120" as="geometry" />
        </mxCell>
        <mxCell id="nlekxh2a4RUyMmhlE-8h-31" value="OFFERID&lt;br&gt;PREIS&lt;div&gt;&lt;br&gt;&lt;/div&gt;" style="text;html=1;align=left;verticalAlign=middle;resizable=0;points=[];autosize=1;strokeColor=none;fillColor=none;" vertex="1" parent="nlekxh2a4RUyMmhlE-8h-23">
          <mxGeometry y="22" width="80" height="60" as="geometry" />
        </mxCell>
        <mxCell id="nlekxh2a4RUyMmhlE-8h-25" value="COMMENT" style="text;html=1;align=center;verticalAlign=middle;resizable=0;points=[];autosize=1;strokeColor=none;fillColor=none;" vertex="1" parent="1">
          <mxGeometry x="-185" y="308" width="90" height="30" as="geometry" />
        </mxCell>
        <mxCell id="zqzKAoWXqfA8L6BJdc7o-36" style="edgeStyle=orthogonalEdgeStyle;rounded=0;orthogonalLoop=1;jettySize=auto;html=1;entryX=0.5;entryY=1;entryDx=0;entryDy=0;" edge="1" parent="1" source="nlekxh2a4RUyMmhlE-8h-24" target="nlekxh2a4RUyMmhlE-8h-11">
          <mxGeometry relative="1" as="geometry" />
        </mxCell>
        <mxCell id="zqzKAoWXqfA8L6BJdc7o-40" value="&lt;font style=&quot;font-size: 14px;&quot;&gt;0...*&lt;/font&gt;" style="edgeLabel;html=1;align=center;verticalAlign=middle;resizable=0;points=[];" vertex="1" connectable="0" parent="zqzKAoWXqfA8L6BJdc7o-36">
          <mxGeometry x="-0.9259" y="1" relative="1" as="geometry">
            <mxPoint as="offset" />
          </mxGeometry>
        </mxCell>
        <mxCell id="33N8ULpZx4EMxlpKR_Wp-17" value="&lt;font style=&quot;font-size: 14px;&quot;&gt;1&lt;/font&gt;" style="edgeLabel;html=1;align=center;verticalAlign=middle;resizable=0;points=[];" vertex="1" connectable="0" parent="zqzKAoWXqfA8L6BJdc7o-36">
          <mxGeometry x="0.8701" y="-2" relative="1" as="geometry">
            <mxPoint as="offset" />
          </mxGeometry>
        </mxCell>
        <mxCell id="zqzKAoWXqfA8L6BJdc7o-41" value="&lt;font style=&quot;font-size: 14px;&quot;&gt;1...*&lt;/font&gt;" style="edgeLabel;html=1;align=center;verticalAlign=middle;resizable=0;points=[];" vertex="1" connectable="0" parent="1">
          <mxGeometry x="-90" y="582.1199999999999" as="geometry">
            <mxPoint x="-42" y="-12" as="offset" />
          </mxGeometry>
        </mxCell>
        <mxCell id="33N8ULpZx4EMxlpKR_Wp-3" style="edgeStyle=orthogonalEdgeStyle;rounded=0;orthogonalLoop=1;jettySize=auto;html=1;entryX=0.5;entryY=1;entryDx=0;entryDy=0;exitX=0;exitY=0.25;exitDx=0;exitDy=0;" edge="1" parent="1" source="8MOcwneKtv6zkITeavdK-1" target="8MOcwneKtv6zkITeavdK-5">
          <mxGeometry relative="1" as="geometry">
            <Array as="points">
              <mxPoint x="20" y="250" />
              <mxPoint y="250" />
            </Array>
          </mxGeometry>
        </mxCell>
        <mxCell id="33N8ULpZx4EMxlpKR_Wp-4" style="edgeStyle=orthogonalEdgeStyle;rounded=0;orthogonalLoop=1;jettySize=auto;html=1;entryX=0.75;entryY=0;entryDx=0;entryDy=0;" edge="1" parent="1" source="nlekxh2a4RUyMmhlE-8h-7" target="nlekxh2a4RUyMmhlE-8h-22">
          <mxGeometry relative="1" as="geometry" />
        </mxCell>
        <mxCell id="33N8ULpZx4EMxlpKR_Wp-5" style="edgeStyle=orthogonalEdgeStyle;rounded=0;orthogonalLoop=1;jettySize=auto;html=1;entryX=-0.004;entryY=0.413;entryDx=0;entryDy=0;entryPerimeter=0;" edge="1" parent="1" source="nlekxh2a4RUyMmhlE-8h-28" target="nlekxh2a4RUyMmhlE-8h-18">
          <mxGeometry relative="1" as="geometry" />
        </mxCell>
        <mxCell id="33N8ULpZx4EMxlpKR_Wp-13" value="&lt;font style=&quot;font-size: 14px;&quot;&gt;1...*&lt;/font&gt;" style="edgeLabel;html=1;align=center;verticalAlign=middle;resizable=0;points=[];" vertex="1" connectable="0" parent="33N8ULpZx4EMxlpKR_Wp-5">
          <mxGeometry x="0.6933" y="-2" relative="1" as="geometry">
            <mxPoint as="offset" />
          </mxGeometry>
        </mxCell>
        <mxCell id="33N8ULpZx4EMxlpKR_Wp-7" style="edgeStyle=orthogonalEdgeStyle;rounded=0;orthogonalLoop=1;jettySize=auto;html=1;entryX=0;entryY=0.5;entryDx=0;entryDy=0;" edge="1" parent="1" source="nlekxh2a4RUyMmhlE-8h-28" target="nlekxh2a4RUyMmhlE-8h-19">
          <mxGeometry relative="1" as="geometry" />
        </mxCell>
        <mxCell id="33N8ULpZx4EMxlpKR_Wp-8" style="edgeStyle=orthogonalEdgeStyle;rounded=0;orthogonalLoop=1;jettySize=auto;html=1;entryX=0;entryY=0.5;entryDx=0;entryDy=0;" edge="1" parent="1" source="nlekxh2a4RUyMmhlE-8h-28" target="nlekxh2a4RUyMmhlE-8h-20">
          <mxGeometry relative="1" as="geometry" />
        </mxCell>
        <mxCell id="33N8ULpZx4EMxlpKR_Wp-9" style="edgeStyle=orthogonalEdgeStyle;rounded=0;orthogonalLoop=1;jettySize=auto;html=1;entryX=0.25;entryY=1;entryDx=0;entryDy=0;" edge="1" parent="1" source="nlekxh2a4RUyMmhlE-8h-28" target="nlekxh2a4RUyMmhlE-8h-6">
          <mxGeometry relative="1" as="geometry">
            <Array as="points">
              <mxPoint x="80" y="452" />
              <mxPoint x="80" y="512" />
              <mxPoint x="420" y="512" />
            </Array>
          </mxGeometry>
        </mxCell>
        <mxCell id="33N8ULpZx4EMxlpKR_Wp-16" value="1...*" style="edgeLabel;html=1;align=center;verticalAlign=middle;resizable=0;points=[];" vertex="1" connectable="0" parent="33N8ULpZx4EMxlpKR_Wp-9">
          <mxGeometry x="0.7314" y="1" relative="1" as="geometry">
            <mxPoint as="offset" />
          </mxGeometry>
        </mxCell>
        <mxCell id="33N8ULpZx4EMxlpKR_Wp-11" value="&lt;font style=&quot;font-size: 14px;&quot;&gt;1...*&lt;/font&gt;" style="edgeLabel;html=1;align=center;verticalAlign=middle;resizable=0;points=[];" vertex="1" connectable="0" parent="1">
          <mxGeometry x="118.00447815368918" y="445.00118675419895" as="geometry">
            <mxPoint x="-1" y="-40" as="offset" />
          </mxGeometry>
        </mxCell>
        <mxCell id="33N8ULpZx4EMxlpKR_Wp-14" value="&lt;font style=&quot;font-size: 14px;&quot;&gt;1...*&lt;/font&gt;" style="edgeLabel;html=1;align=center;verticalAlign=middle;resizable=0;points=[];" vertex="1" connectable="0" parent="1">
          <mxGeometry x="118.00447815368918" y="504.0011867541989" as="geometry">
            <mxPoint x="-1" y="-40" as="offset" />
          </mxGeometry>
        </mxCell>
        <mxCell id="33N8ULpZx4EMxlpKR_Wp-15" value="&lt;font style=&quot;font-size: 14px;&quot;&gt;0...*&lt;/font&gt;" style="edgeLabel;html=1;align=center;verticalAlign=middle;resizable=0;points=[];" vertex="1" connectable="0" parent="1">
          <mxGeometry x="40.00447815368918" y="492.00118675419895" as="geometry">
            <mxPoint x="-1" y="-40" as="offset" />
          </mxGeometry>
        </mxCell>
        <mxCell id="33N8ULpZx4EMxlpKR_Wp-21" value="" style="endArrow=none;html=1;rounded=0;" edge="1" parent="1">
          <mxGeometry width="50" height="50" relative="1" as="geometry">
            <mxPoint x="-630" y="680" as="sourcePoint" />
            <mxPoint x="-630" y="-50" as="targetPoint" />
          </mxGeometry>
        </mxCell>
        <mxCell id="33N8ULpZx4EMxlpKR_Wp-23" value="" style="endArrow=none;html=1;rounded=0;" edge="1" parent="1">
          <mxGeometry width="50" height="50" relative="1" as="geometry">
            <mxPoint x="-631" y="680" as="sourcePoint" />
            <mxPoint x="660.5685317095588" y="680" as="targetPoint" />
          </mxGeometry>
        </mxCell>
        <mxCell id="33N8ULpZx4EMxlpKR_Wp-24" value="" style="endArrow=none;html=1;rounded=0;" edge="1" parent="1">
          <mxGeometry width="50" height="50" relative="1" as="geometry">
            <mxPoint x="660" y="680" as="sourcePoint" />
            <mxPoint x="660" y="-90" as="targetPoint" />
          </mxGeometry>
        </mxCell>
        <mxCell id="33N8ULpZx4EMxlpKR_Wp-25" value="" style="endArrow=none;html=1;rounded=0;" edge="1" parent="1">
          <mxGeometry width="50" height="50" relative="1" as="geometry">
            <mxPoint x="90" y="-90" as="sourcePoint" />
            <mxPoint x="660" y="-90" as="targetPoint" />
          </mxGeometry>
        </mxCell>
        <mxCell id="P2Qq_ya99G6y4IiuvPNS-1" value="&lt;b&gt;&amp;nbsp;package &lt;/b&gt;domain_model [Kleinreparaturen]" style="shape=umlFrame;whiteSpace=wrap;html=1;pointerEvents=0;width=240;height=30;align=left;" vertex="1" parent="1">
          <mxGeometry x="-680" y="-150" width="1360" height="850" as="geometry" />
        </mxCell>
      </root>
    </mxGraphModel>
  </diagram>
</mxfile>
